<svg xmlns="http://www.w3.org/2000/svg" xmlns:xlink="http://www.w3.org/1999/xlink" width="80" height="80"><defs><linearGradient id="b" x1="949.87" x2="974.39" y1="518.014" y2="544.657" gradientTransform="translate(-2423.921 -1321.7) scale(2.56309)" gradientUnits="userSpaceOnUse" xlink:href="#a"/><linearGradient id="a"><stop offset="0" stop-color="#24f7bc"/><stop offset="1" stop-color="#24c4fc"/></linearGradient></defs><rect width="80" height="80" fill="url(#b)" rx="16.907" ry="16.907"/><path fill="#fff" d="m40 20-20 5.7V28h40v-2.2L40 20Zm0 2c1.1 0 2 .9 2 2s-.9 2-2 2-2-.9-2-2 .9-2 2-2zm-7 2c.6 0 1 .4 1 1s-.4 1-1 1-1-.4-1-1 .4-1 1-1zm14 0c.6 0 1 .4 1 1s-.4 1-1 1-1-.4-1-1 .4-1 1-1zm-24 6v2h34v-2H23zm2 4v18h2V34h-2zm4 0v18h8V34h-8zm10 0v18h2V34h-2zm4 0v18h8V34h-8zm10 0v18h2V34h-2zM23 54v2h34v-2H23zm-3 4v2h40v-2H20z"/></svg>